<?xml version="1.0" encoding="UTF-8"?>
<svg width="600" height="350" viewBox="0 0 600 350" fill="none" xmlns="http://www.w3.org/2000/svg">
  <!-- YOUTH MUSLIM in Oswald (converted to path) -->
  <g fill="#222">
    <!-- Replace the d attribute below with the actual path data for 'YOUTH MUSLIM' in Oswald Bold -->
    <path d="M60,110 ...Z" />
  </g>
  <!-- Sports in Noto Serif Display Extra Condensed (converted to path) -->
  <g fill="#e1a05a">
    <!-- Replace the d attribute below with the actual path data for 'Sports' in Noto Serif Display Extra Condensed Bold Italic -->
    <path d="M320,190 ...Z" />
  </g>
  <!-- Rounded rectangle for icons -->
  <rect x="80" y="210" rx="22" ry="22" width="440" height="70" fill="#fff" stroke="#222" stroke-width="3"/>
  <!-- Placeholder icons (vector approximations) -->
  <!-- Table tennis -->
  <circle fill="#222" cx="120" cy="245" r="10"/>
  <rect fill="#222" x="135" y="240" width="18" height="6" rx="3"/>
  <!-- Basketball -->
  <circle stroke="#222" stroke-width="2" fill="none" cx="180" cy="245" r="12"/>
  <path d="M168 245 Q180 257 192 245 Q180 233 168 245" stroke="#222" stroke-width="2" fill="none"/>
  <!-- Soccer player -->
  <circle fill="#222" cx="240" cy="245" r="8"/>
  <rect fill="#222" x="250" y="237" width="18" height="6" rx="3"/>
  <!-- Running figure -->
  <rect fill="#222" x="290" y="237" width="6" height="16" rx="3"/>
  <rect fill="#222" x="298" y="245" width="16" height="6" rx="3"/>
  <!-- Soccer ball -->
  <circle stroke="#222" stroke-width="2" fill="none" cx="360" cy="245" r="10"/>
  <circle fill="#222" cx="360" cy="245" r="3"/>
  <!-- Swoosh -->
  <path d="M390 255 Q450 225 500 245" stroke="#222" stroke-width="3" fill="none"/>
</svg>
